<?xml version="1.0" encoding="UTF-8"?>
<svg height="600" width="800" xmlns="http://www.w3.org/2000/svg" xmlns:xlink="http://www.w3.org/1999/xlink">
    <g id="Notes" font-family="'LucidaGrande', 'Lucida Grande', sans-serif" font-size="13">
        <rect fill="white" height="600.0" width="800.0" x="0.0" y="0.0" />
        <g font-size="13">
            <text x="18.0" y="176.0">Small</text>
            <text x="18.0" y="376.0">Medium</text>
            <text x="18.0" y="576.0">Large</text>
        </g>
        <g font-size="9">
            <text x="250.0" y="30.0">Ultralight</text>
            <text x="450.0" y="30.0">Regular</text>
            <text x="650.0" y="30.0">Black</text>
            <text id="template-version" fill="#505050" text-anchor="end" x="785.0" y="575.0">Template v.3.0</text>
            <a href="https://github.com/swhitty/SwiftDraw">
                <text fill="#505050" text-anchor="end" x="785.0" y="590.0">https://github.com/swhitty/SwiftDraw</text>
            </a>
        </g>
    </g>
    <g id="Guides" stroke="rgb(39, 170, 225)" stroke-width="0.5">
        <path id="Capline-S" d="M18,76 l800,0" />
        <path id="H-reference" d="M85,145.755 L87.685,145.755 L113.369,79.287 L114.052,79.287 L114.052,76 L112.148,76 L85,145.755 Z M95.693,121.536 L130.996,121.536 L130.263,119.313 L96.474,119.313 L95.693,121.536 Z M139.15,145.755 L141.787,145.755 L114.638,76 L113.466,76 L113.466,79.287 L139.15,145.755 Z" stroke="none" />
        <path id="Baseline-S" d="M18,146 l800,0" />
        <path id="left-margin-Ultralight-S" d="M221.192,56 l0,110" />
        <path id="right-margin-Ultralight-S" d="M308.808,56 l0,110" />
        <path id="left-margin-Regular-S" d="M421.192,56 l0,110" />
        <path id="right-margin-Regular-S" d="M508.808,56 l0,110" />
        <path id="left-margin-Black-S" d="M621.192,56 l0,110" />
        <path id="right-margin-Black-S" d="M708.808,56 l0,110" />
        <path id="Capline-M" d="M18,276 l800,0" />
        <path id="Baseline-M" d="M18,346 l800,0" />
        <path id="Capline-L" d="M18,476 l800,0" />
        <path id="Baseline-L" d="M18,546 l800,0" />
    </g>
    <g id="Symbols">
        <g id="Ultralight-S">
            <path d="M262.209,87.966 C263.318,81.83 268.286,76.18 274.821,76.044 C277.446,75.558 279.323,79.214 277.262,80.974 C275.482,81.947 273.362,82.015 271.583,82.987 C269.823,84.086 269.035,86.118 267.985,87.81 C276.095,87.081 284.632,88.957 290.895,94.383 C300.648,102.221 304.207,116.632 299.199,128.106 C294.492,139.814 281.492,147.641 268.928,145.697 C263.736,144.53 258.514,146.815 253.312,145.667 C240.291,143.917 229.488,132.326 228.671,119.209 C227.397,106.441 235.711,93.596 247.818,89.415 C252.388,87.664 257.376,87.489 262.209,87.966 M242.11,99.469 C244.813,100.344 247.652,101.229 250.521,100.704 C252.777,100.451 254.916,99.382 257.191,99.508 C259.195,100.121 258.981,102.6 259.632,104.205 C260.342,107.52 262.656,110.136 265.019,112.431 C267.372,110.126 269.677,107.53 270.397,104.214 C271.009,102.415 271.038,99.168 273.732,99.459 C278.38,100.753 283.349,101.55 287.919,99.479 C284.185,96.328 279.625,94.063 274.704,93.644 C270.474,93.003 266.303,95.113 262.092,94.063 C255.013,92.419 247.516,94.772 242.11,99.469 Z" />
        </g>
        <g id="Regular-S">
            <path d="M462.209,87.966 C463.318,81.83 468.286,76.18 474.821,76.044 C477.446,75.558 479.323,79.214 477.262,80.974 C475.482,81.947 473.362,82.015 471.583,82.987 C469.823,84.086 469.035,86.118 467.985,87.81 C476.095,87.081 484.632,88.957 490.895,94.383 C500.648,102.221 504.207,116.632 499.199,128.106 C494.492,139.814 481.492,147.641 468.928,145.697 C463.736,144.53 458.514,146.815 453.312,145.667 C440.291,143.917 429.488,132.326 428.671,119.209 C427.397,106.441 435.711,93.596 447.818,89.415 C452.388,87.664 457.376,87.489 462.209,87.966 M442.11,99.469 C444.813,100.344 447.652,101.229 450.521,100.704 C452.777,100.451 454.916,99.382 457.191,99.508 C459.195,100.121 458.981,102.6 459.632,104.205 C460.342,107.52 462.656,110.136 465.019,112.431 C467.372,110.126 469.677,107.53 470.397,104.214 C471.009,102.415 471.038,99.168 473.732,99.459 C478.38,100.753 483.349,101.55 487.919,99.479 C484.185,96.328 479.625,94.063 474.704,93.644 C470.474,93.003 466.303,95.113 462.092,94.063 C455.013,92.419 447.516,94.772 442.11,99.469 Z" />
        </g>
        <g id="Black-S">
            <path d="M662.209,87.966 C663.318,81.83 668.286,76.18 674.821,76.044 C677.446,75.558 679.323,79.214 677.262,80.974 C675.482,81.947 673.362,82.015 671.583,82.987 C669.823,84.086 669.035,86.118 667.985,87.81 C676.095,87.081 684.632,88.957 690.895,94.383 C700.648,102.221 704.207,116.632 699.199,128.106 C694.492,139.814 681.492,147.641 668.928,145.697 C663.736,144.53 658.514,146.815 653.312,145.667 C640.291,143.917 629.488,132.326 628.671,119.209 C627.397,106.441 635.711,93.596 647.818,89.415 C652.388,87.664 657.376,87.489 662.209,87.966 M642.11,99.469 C644.813,100.344 647.652,101.229 650.521,100.704 C652.777,100.451 654.916,99.382 657.191,99.508 C659.195,100.121 658.981,102.6 659.632,104.205 C660.342,107.52 662.656,110.136 665.019,112.431 C667.372,110.126 669.677,107.53 670.397,104.214 C671.009,102.415 671.038,99.168 673.732,99.459 C678.38,100.753 683.349,101.55 687.919,99.479 C684.185,96.328 679.625,94.063 674.704,93.644 C670.474,93.003 666.303,95.113 662.092,94.063 C655.013,92.419 647.516,94.772 642.11,99.469 Z" />
        </g>
    </g>
</svg>